<svg xmlns="http://www.w3.org/2000/svg" width="1600" height="900" viewBox="0 0 1600 900">
<rect width="100%" height="100%" fill="#fcfcfd"/>
<defs>
  <marker id="arrow" markerWidth="10" markerHeight="7" refX="9" refY="3.5" orient="auto">
    <polygon points="0 0, 10 3.5, 0 7" fill="#0f172a"/>
  </marker>
</defs>
<text x="40" y="48" font-family="Arial" font-size="34" font-weight="bold" fill="#0f172a">LLC Resonant Converter with Soft Switching (ZVS/ZCS)</text>
<rect x="60" y="220" width="170" height="80" rx="10" ry="10" fill="#eef2ff" stroke="#1f2937" stroke-width="2.5"/><text x="145.0" y="266.0" font-family="Arial" font-size="22" text-anchor="middle" fill="#111827">Vin</text>
<rect x="290" y="220" width="220" height="100" rx="10" ry="10" fill="#f0fdf4" stroke="#1f2937" stroke-width="2.5"/><text x="400.0" y="276.0" font-family="Arial" font-size="22" text-anchor="middle" fill="#111827">Half-Bridge
Q1,Q2</text>
<rect x="560" y="180" width="120" height="70" rx="10" ry="10" fill="#f8fafc" stroke="#1f2937" stroke-width="2.5"/><text x="620.0" y="221.0" font-family="Arial" font-size="22" text-anchor="middle" fill="#111827">Lr</text>
<rect x="710" y="180" width="120" height="70" rx="10" ry="10" fill="#fff7ed" stroke="#1f2937" stroke-width="2.5"/><text x="770.0" y="221.0" font-family="Arial" font-size="22" text-anchor="middle" fill="#111827">Cr</text>
<rect x="860" y="180" width="150" height="70" rx="10" ry="10" fill="#f8fafc" stroke="#1f2937" stroke-width="2.5"/><text x="935.0" y="221.0" font-family="Arial" font-size="22" text-anchor="middle" fill="#111827">Lm</text>
<rect x="860" y="290" width="160" height="100" rx="10" ry="10" fill="#fef3c7" stroke="#1f2937" stroke-width="2.5"/><text x="940.0" y="346.0" font-family="Arial" font-size="22" text-anchor="middle" fill="#111827">HF Tx</text>
<rect x="1080" y="220" width="230" height="100" rx="10" ry="10" fill="#f0fdf4" stroke="#1f2937" stroke-width="2.5"/><text x="1195.0" y="276.0" font-family="Arial" font-size="22" text-anchor="middle" fill="#111827">Sync Rectifier
Q3,Q4</text>
<rect x="1360" y="230" width="100" height="70" rx="10" ry="10" fill="#fff7ed" stroke="#1f2937" stroke-width="2.5"/><text x="1410.0" y="271.0" font-family="Arial" font-size="22" text-anchor="middle" fill="#111827">Co</text>
<rect x="1280" y="380" width="220" height="80" rx="10" ry="10" fill="#eef2ff" stroke="#1f2937" stroke-width="2.5"/><text x="1390.0" y="426.0" font-family="Arial" font-size="22" text-anchor="middle" fill="#111827">Vout 400V</text>
<line x1="230" y1="260" x2="290" y2="270" stroke="#111827" stroke-width="3" marker-end="url(#arrow)"/>
<line x1="510" y1="270" x2="560" y2="215" stroke="#111827" stroke-width="3"/>
<line x1="680" y1="215" x2="710" y2="215" stroke="#111827" stroke-width="3"/>
<line x1="830" y1="215" x2="860" y2="215" stroke="#111827" stroke-width="3"/>
<line x1="935" y1="250" x2="935" y2="290" stroke="#111827" stroke-width="3"/>
<line x1="1020" y1="340" x2="1080" y2="270" stroke="#111827" stroke-width="3" marker-end="url(#arrow)"/>
<line x1="1310" y1="270" x2="1360" y2="265" stroke="#111827" stroke-width="3"/>
<line x1="1410" y1="300" x2="1410" y2="380" stroke="#111827" stroke-width="3" marker-end="url(#arrow)"/>
<text x="70" y="610" font-family="Arial" font-size="20" fill="#374151">Switching: variable-frequency control around resonant frequency to sustain ZVS/ZCS region.</text>
<text x="70" y="645" font-family="Arial" font-size="20" fill="#374151">Flow: resonant sinusoidal tank current -> transformer -> synchronous rectification -> low-ripple DC output.</text>
</svg>